<svg width="21" height="20" viewBox="0 0 21 20" fill="none" xmlns="http://www.w3.org/2000/svg">
<path d="M10.041 0.0400391C4.54102 0.0400391 0.0410156 4.53004 0.0410156 10.06C0.0410156 15.06 3.70101 19.21 8.48102 19.96V12.96H5.94102V10.06H8.48102V7.85004C8.48102 5.34004 9.97102 3.96004 12.261 3.96004C13.351 3.96004 14.491 4.15004 14.491 4.15004V6.62004H13.231C11.991 6.62004 11.601 7.39004 11.601 8.18004V10.06H14.381L13.931 12.96H11.601V19.96C13.9575 19.5879 16.1032 18.3856 17.6509 16.5701C19.1987 14.7546 20.0464 12.4457 20.041 10.06C20.041 4.53004 15.541 0.0400391 10.041 0.0400391Z" fill="white"/>
</svg>
