<svg width="21" height="20" viewBox="0 0 21 20" fill="none" xmlns="http://www.w3.org/2000/svg">
<path d="M11.2647 0C12.3897 0.003 12.9607 0.009 13.4537 0.023L13.6477 0.03C13.8717 0.038 14.0927 0.0479999 14.3597 0.0599999C15.4237 0.11 16.1497 0.278 16.7867 0.525C17.4467 0.779 18.0027 1.123 18.5587 1.678C19.0673 2.17773 19.4608 2.78247 19.7117 3.45C19.9587 4.087 20.1267 4.813 20.1767 5.878C20.1887 6.144 20.1987 6.365 20.2067 6.59L20.2127 6.784C20.2277 7.276 20.2337 7.847 20.2357 8.972L20.2367 9.718V11.028C20.2391 11.7574 20.2314 12.4868 20.2137 13.216L20.2077 13.41C20.1997 13.635 20.1897 13.856 20.1777 14.122C20.1277 15.187 19.9577 15.912 19.7117 16.55C19.4608 17.2175 19.0673 17.8223 18.5587 18.322C18.0589 18.8307 17.4542 19.2242 16.7867 19.475C16.1497 19.722 15.4237 19.89 14.3597 19.94L13.6477 19.97L13.4537 19.976C12.9607 19.99 12.3897 19.997 11.2647 19.999L10.5187 20H9.20965C8.47991 20.0026 7.75018 19.9949 7.02065 19.977L6.82665 19.971C6.58926 19.962 6.35193 19.9517 6.11465 19.94C5.05065 19.89 4.32465 19.722 3.68665 19.475C3.01948 19.2241 2.4151 18.8306 1.91565 18.322C1.4066 17.8224 1.01276 17.2176 0.761653 16.55C0.514653 15.913 0.346653 15.187 0.296653 14.122L0.266653 13.41L0.261653 13.216C0.243219 12.4868 0.234885 11.7574 0.236653 11.028V8.972C0.233885 8.2426 0.241219 7.5132 0.258653 6.784L0.265653 6.59C0.273653 6.365 0.283653 6.144 0.295653 5.878C0.345653 4.813 0.513653 4.088 0.760653 3.45C1.01235 2.7822 1.40688 2.17744 1.91665 1.678C2.41581 1.16955 3.01984 0.776074 3.68665 0.525C4.32465 0.278 5.04965 0.11 6.11465 0.0599999C6.38065 0.0479999 6.60265 0.038 6.82665 0.03L7.02065 0.0239999C7.74985 0.00623271 8.47925 -0.0014347 9.20865 0.000999928L11.2647 0ZM10.2367 5C8.91057 5 7.6388 5.52678 6.70112 6.46447C5.76344 7.40215 5.23665 8.67392 5.23665 10C5.23665 11.3261 5.76344 12.5979 6.70112 13.5355C7.6388 14.4732 8.91057 15 10.2367 15C11.5627 15 12.8345 14.4732 13.7722 13.5355C14.7099 12.5979 15.2367 11.3261 15.2367 10C15.2367 8.67392 14.7099 7.40215 13.7722 6.46447C12.8345 5.52678 11.5627 5 10.2367 5ZM10.2367 7C10.6306 6.99993 11.0207 7.07747 11.3847 7.22817C11.7487 7.37887 12.0795 7.5998 12.3581 7.87833C12.6367 8.15686 12.8578 8.48754 13.0086 8.85149C13.1594 9.21544 13.2371 9.60553 13.2372 9.9995C13.2372 10.3935 13.1597 10.7836 13.009 11.1476C12.8583 11.5116 12.6374 11.8423 12.3588 12.121C12.0803 12.3996 11.7496 12.6206 11.3857 12.7714C11.0217 12.9223 10.6316 12.9999 10.2377 13C9.442 13 8.67894 12.6839 8.11633 12.1213C7.55372 11.5587 7.23765 10.7956 7.23765 10C7.23765 9.20435 7.55372 8.44129 8.11633 7.87868C8.67894 7.31607 9.442 7 10.2377 7M15.4877 3.5C15.1561 3.5 14.8382 3.6317 14.6038 3.86612C14.3693 4.10054 14.2377 4.41848 14.2377 4.75C14.2377 5.08152 14.3693 5.39946 14.6038 5.63388C14.8382 5.8683 15.1561 6 15.4877 6C15.8192 6 16.1371 5.8683 16.3715 5.63388C16.606 5.39946 16.7377 5.08152 16.7377 4.75C16.7377 4.41848 16.606 4.10054 16.3715 3.86612C16.1371 3.6317 15.8192 3.5 15.4877 3.5Z" fill="white"/>
</svg>
